<svg width="107" height="72" viewBox="0 0 107 72" fill="none" xmlns="http://www.w3.org/2000/svg">
<path fill-rule="evenodd" clip-rule="evenodd" d="M54.7696 19.4142L71.3553 2.82844L103.882 35.3553L71.3553 67.8823L55.4142 51.9411L69.9411 37.4142L71.3553 36L69.9411 34.5858L54.7696 19.4142ZM53.3553 18L69.9411 1.41422L71.3553 8.22544e-06L72.7696 1.41422L105.296 33.9411L106.711 35.3553L105.296 36.7696L72.7696 69.2965L71.3553 70.7107L69.9411 69.2965L54 53.3553L37.4142 69.9411L36 71.3553L34.5858 69.9411L2.05887 37.4142L0.644653 36L2.05887 34.5858L34.5858 2.05888L36 0.644662L37.4142 2.05888L53.3553 18ZM52.5858 51.9411L36 68.5269L3.47308 36L36 3.47309L51.9411 19.4142L37.4142 33.9411L36 35.3553L37.4142 36.7696L52.5858 51.9411ZM54 50.5269L38.8284 35.3553L53.3553 20.8284L68.5269 36L54 50.5269Z" fill="white"/>
</svg>
